<svg width="32" height="32" viewBox="0 0 32 32" fill="none" xmlns="http://www.w3.org/2000/svg">
<path fill-rule="evenodd" clip-rule="evenodd" d="M16 32L15.9286 30.9496L15.9279 30.9399C15.5382 25.2053 15.3162 21.949 13.8929 19.802C13.6699 19.4657 13.4176 19.1567 13.1305 18.8695C12.8433 18.5824 12.5343 18.3301 12.198 18.1071C10.051 16.6838 6.79466 16.4618 1.06012 16.0721L1.05037 16.0714L0 16L1.05037 15.9286L1.06012 15.9279C6.79466 15.5382 10.051 15.3162 12.198 13.8929C12.5343 13.6699 12.8433 13.4176 13.1305 13.1305C13.4176 12.8433 13.6699 12.5343 13.8929 12.198C15.3162 10.051 15.5382 6.79466 15.9279 1.06012L15.9286 1.05037L16 0L16.0714 1.05037L16.0721 1.06012C16.4618 6.79466 16.6838 10.051 18.1071 12.198C18.3301 12.5343 18.5824 12.8433 18.8695 13.1305C19.1567 13.4176 19.4657 13.6699 19.802 13.8929C21.949 15.3162 25.2053 15.5382 30.9399 15.9279L30.9496 15.9286L32 16L30.9496 16.0714L30.9399 16.0721C25.2053 16.4618 21.949 16.6838 19.802 18.1071C19.4657 18.3301 19.1567 18.5824 18.8695 18.8695C18.5824 19.1567 18.3301 19.4657 18.1071 19.802C16.6838 21.949 16.4618 25.2053 16.0721 30.9399L16.0714 30.9496L16 32Z" fill="#FD0079"/>
</svg>
