<svg width="559" height="509" viewBox="0 0 559 509" fill="none" xmlns="http://www.w3.org/2000/svg">
<path fill-rule="evenodd" clip-rule="evenodd" d="M165.239 38.3731L166.488 20L167.737 38.373L167.748 38.5436C168.191 45.0527 168.43 48.3334 170.519 50.4371L170.535 50.4531L170.551 50.4691C172.654 52.5574 175.935 52.7971 182.444 53.2397L182.615 53.2513L200.988 54.5L182.615 55.7487L182.444 55.7603C175.935 56.2029 172.654 56.4426 170.551 58.5309L170.535 58.5469L170.519 58.5629C168.43 60.6666 168.191 63.9473 167.748 70.4564L167.737 70.6269L166.488 89L165.239 70.627L165.228 70.4564C164.785 63.9473 164.545 60.6666 162.457 58.5629L162.441 58.5469L162.425 58.5309C160.321 56.4426 157.041 56.2029 150.531 55.7603L150.361 55.7487L132.006 54.5012V54.4988L150.361 53.2513L150.531 53.2397C157.041 52.7971 160.321 52.5574 162.425 50.4691L162.441 50.4531L162.457 50.4371C164.545 48.3334 164.785 45.0527 165.228 38.5436L165.239 38.3731Z" fill="#FBFF00"/>
<path fill-rule="evenodd" clip-rule="evenodd" d="M112.471 7.60489L112.988 0L113.505 7.6049L113.51 7.67548C113.887 13.2316 114.111 16.4516 115.438 18.5921C115.685 18.9912 115.971 19.3528 116.303 19.685C116.635 20.0172 116.997 20.3029 117.396 20.5503C119.536 21.8769 122.756 22.1007 128.312 22.4783L128.383 22.4831L135.988 23L128.383 23.5169L128.312 23.5217C122.756 23.8993 119.536 24.1231 117.396 25.4497C116.997 25.6971 116.635 25.9828 116.303 26.315C115.971 26.6472 115.685 27.0088 115.438 27.4079C114.111 29.5484 113.887 32.7684 113.51 38.3245L113.505 38.3951L112.988 46L112.471 38.3951L112.466 38.3245C112.089 32.7684 111.865 29.5484 110.538 27.4079C110.291 27.0088 110.005 26.6472 109.673 26.315C109.341 25.9828 108.979 25.6971 108.58 25.4497C106.439 24.1231 103.219 23.8993 97.6633 23.5217L97.5927 23.5169L90 23.0008V22.9992L97.5928 22.4831L97.6633 22.4783C103.219 22.1007 106.439 21.8769 108.58 20.5503C108.979 20.3029 109.341 20.0172 109.673 19.685C110.005 19.3528 110.291 18.9912 110.538 18.5921C111.865 16.4516 112.089 13.2316 112.466 7.67548L112.471 7.60489Z" fill="#FD0079"/>
<mask id="mask0_179:94" style="mask-type:alpha" maskUnits="userSpaceOnUse" x="0" y="0" width="559" height="509">
<rect width="559" height="509" fill="#C4C4C4"/>
</mask>
<g mask="url(#mask0_179:94)">
<path d="M301.135 41.0375C316.017 58.5643 312.317 60.6494 309.801 75.1258C331.957 79.6537 352.983 79.9791 375.498 79.9439C378.735 64.1036 383.323 62.1476 366.109 41.3977C388.046 38.1843 400.851 33.4879 413.104 29.7077C446.236 75.2149 412.569 121.618 390.074 166.286C369.555 168.499 356.267 168.93 337.476 167.093C346.91 148.062 356.153 129.265 364.434 109.699C343.697 109.993 321.301 107.213 300.899 102.73C294.371 120.4 290.05 130.524 278.672 155.567C263.148 151.687 255.89 149.374 239.861 146.838C251.047 120.089 286.127 62.983 263.431 34.3572C278.138 36.8071 285.131 38.7139 301.135 41.0375Z" fill="#FD0079"/>
<path d="M416.962 161.464C431.452 130.258 454.62 91.3464 452.457 54.9038C468.2 54.0124 476.573 55.1255 490.123 57.8774C499.107 91.2973 474.032 132.538 461.163 160.8C443.297 160.184 432.419 159.958 416.962 161.464ZM450.808 47.9911C447.703 39.7198 445.077 35.6888 429.638 21.9749C445.476 21.9316 448.626 22.9108 459.266 26.8037C478.165 40.3947 482.03 43.8762 487.019 51.5351C473.875 48.5294 466.575 47.3117 450.808 47.9911Z" fill="#FD0079"/>
<path d="M20.4848 308.306C36.1531 250.319 60.6272 199.513 90.2844 147.398C108.981 137.49 118.011 132.964 136.769 126.461C107.56 179.425 83.0864 230.231 68.5178 289.062C49.1173 295.995 39.4361 300.525 20.4848 308.306Z" fill="#FBFF00"/>
<path d="M163.497 156.659C154.36 156.93 149.802 157.598 140.692 159.362C150.18 142.241 154.605 134.109 162.616 119.556C182.355 115.806 193.015 115.526 210.888 116.906C204.355 128.891 200.769 135.311 193.179 149.008C184.958 163.989 171.331 180.923 164.722 188.642C154.264 188.068 148.167 187.893 136.655 189.245C144.551 180.451 156.914 165.871 163.497 156.659Z" fill="#FBFF00"/>
<path d="M250.442 168.439C252.19 169.067 253.066 169.487 254.597 170.116C286.9 179.919 286.199 213.559 273.38 237.27C266.042 251.792 262.915 259.05 257.534 273.773C255.874 278.041 255.702 280.597 258.551 282.069C260.085 282.911 260.961 283.332 262.492 283.961C256.917 299.962 254.67 307.853 251.048 323.842C241.837 318.578 237.663 315.837 229.316 310.354C223.166 306.348 221.457 295.715 221.754 288.049C219.221 292.11 211.567 301.099 196.674 293.742C195.798 293.321 195.36 293.111 194.701 292.69C177.843 284.706 166.458 267.108 169.109 245.377C171.946 221.942 189.917 207.14 214.158 215.29C223.111 218.214 227.269 220.103 236.016 223.668C240.384 225.13 242.741 223.412 244.386 218.293C246.454 212.532 245.929 207.426 236.953 203.225C236.736 203.226 236.733 203.013 236.516 203.014C226.223 197.97 221.805 205.874 220.347 209.29C208.092 203.832 201.748 201.104 187.148 198.003C195.808 172.402 223.969 156.897 250.442 168.439ZM230.022 252.658C230.848 250.311 231.259 249.031 232.303 246.683C229.908 246.272 224.679 245.24 218.796 244C208.118 241.726 204.044 244.519 202.871 251.764C201.694 258.797 204.397 264.315 210.098 267.472C219.96 272.732 226.507 262.473 230.022 252.658Z" fill="#FBFF00"/>
<path d="M325.869 197.229C343.153 200.541 356.027 201.101 372.607 201.638C365.381 212.159 360.91 218.173 355.181 226.974C370.441 214.692 386.521 199.413 407.442 198.853C408.096 198.849 408.314 198.848 408.971 199.058C426.224 200.659 428.312 219.887 422.999 239.802C442.36 225.143 464.31 208.971 490.295 211.159C490.953 211.369 491.389 211.366 492.043 211.362C526.618 218.413 500.371 274.803 492.385 291.528C481.905 315.11 474.278 339.743 469.061 365.002C451.842 365.324 442.464 365.169 418.22 362.756C425.869 339.406 433.974 317.122 443.38 294.402C450.498 277.896 451.768 263.564 436.684 261.308C422.693 259.258 410.496 272.161 402.498 288.245C392.225 311.185 383.466 333.473 375.387 357.254C356.146 354.168 346.519 352.304 331.201 349.194C338.847 325.63 347.396 303.77 357.241 281.261C364.799 264.966 368.031 250.623 356.676 249.625C346.192 248.622 333.991 261.312 325.982 276.755C315.69 298.625 307.129 319.844 299.25 342.554C281.519 338.604 275.579 335.648 262.817 329.101C277.206 280.269 297.409 239.523 325.869 197.229Z" fill="#FBFF00"/>
<path d="M77.179 437.684C96.2673 429.165 98.4898 414.125 96.8306 395.595C94.9037 365.061 95.1566 334.529 96.2719 303.913C115.983 295.119 125.97 290.924 146.282 287.442C145.574 317.804 145.944 348.06 148.493 378.319C152.986 418.057 144.899 444.84 103.8 461.088C100.878 462.231 99.6324 462.782 96.7345 464.139C64.3538 478.463 12.4202 474.067 5.483 431.99C21.5319 431.286 30.5855 428.471 47.3992 422.967C49.5103 431.999 56.6537 446.987 77.179 437.684Z" fill="#5BFF62"/>
<path d="M220.196 331.382C221.774 331.872 222.683 332.213 224.286 332.915C250.737 341.711 265.669 369.87 267.711 395.637C269.15 408.373 270.061 414.507 272.361 425.227C272.936 428.39 273.797 430.238 275.926 431.747C277.122 432.704 277.6 433.086 278.796 434.043C281.359 445.166 282.126 450.027 287.151 457.907C280.835 452.084 277.678 449.173 270.358 444.092C264.928 440.329 258.398 434.528 255.288 430.11C255.312 432.253 255.815 434.779 238.763 430.217C237.854 429.877 237.424 429.919 236.515 429.578C218.195 425.354 191.626 423.222 180.859 406.888C171.911 393.168 183.621 371.641 214.807 376.113C224.54 377.526 228.821 378.825 236.977 381.679C241.019 382.787 241.736 381.43 240.538 376.611C239.293 371.367 236.995 366.441 227.692 363.055C227.476 363.076 227.476 363.076 227.237 362.885C216.57 358.989 216.573 366.714 216.933 369.898C203.253 366.295 195.671 364.673 175.775 365.753C171.151 340.237 195.226 322.227 220.196 331.382ZM246.025 405.905C245.593 404.015 245.282 403.187 245.042 401.065C243.057 400.829 238.8 399.741 233.276 398.992C223.327 397.601 220.602 400.441 223.139 405.559C225.651 410.465 230.818 413.824 237.156 415.996C247.799 419.68 247.51 413.271 246.025 405.905Z" fill="#5BFF62"/>
<path d="M313.603 379.979C313.2 387.95 312.986 391.83 312.75 399.357C316.233 393.657 327.185 381.013 346.712 384.683C347.38 384.832 347.595 384.811 348.049 384.981C376.91 392.457 388.785 428.388 384.379 454.758C381.237 480.791 378.902 492.81 376.688 511.677C359.334 508.01 352.506 505.246 340.306 499.146C339.49 484.219 341.014 474.637 342.701 453.034C343.699 438.787 338.277 427.31 326.985 423.481C316.362 419.8 312.975 428.277 313.099 440.914C313.655 461.226 313.157 470.279 317.052 483.62C307.716 475.954 303.776 471.837 295.73 464.046C283.14 433.33 283.509 398.135 282.448 365.651C293.812 372.047 299.59 375.128 313.603 379.979Z" fill="#5BFF62"/>
<path d="M501.971 496.525C498.394 497.734 496.498 498.35 492.704 499.581C456.211 509.164 402.905 503.372 401.352 456.79C399.63 406.78 440.969 384.018 486.539 377.427C490.189 376.857 491.893 376.475 495.087 375.734C530.835 363.423 550.696 376.779 548.668 412.941C548.62 414.454 548.5 415.327 548.453 416.839C530.311 445.74 498.594 451.198 467.166 457.273C469.884 469.715 481.075 475.947 498.385 470.6C516.127 465.212 517.108 456.502 517.948 454.266C534.681 445.746 540.874 440.62 547.808 426.593C545.657 455.875 531.645 486.528 501.971 496.525ZM467.95 433.292C493.833 430.341 503.124 427.498 518.489 420.403C517.285 411.69 514.041 404.253 495.53 408.64C480.429 412.264 471.476 421.966 467.95 433.292Z" fill="#5BFF62"/>
</g>
</svg>
