<svg width="596" height="549" viewBox="0 0 596 549" fill="none" xmlns="http://www.w3.org/2000/svg">
<path d="M337.153 41.0374C352.035 58.5642 348.336 60.6493 345.819 75.1258C367.976 79.6537 389.001 79.9791 411.516 79.9439C414.753 64.1035 419.341 62.1475 402.127 41.3976C424.064 38.1843 436.869 33.4878 449.122 29.7076C482.255 75.2148 448.587 121.618 426.092 166.286C405.573 168.499 392.285 168.93 373.494 167.093C382.928 148.062 392.171 129.265 400.452 109.699C379.715 109.993 357.319 107.213 336.917 102.73C330.389 120.4 326.068 130.524 314.69 155.566C299.166 151.687 291.908 149.374 275.88 146.838C287.065 120.089 322.145 62.983 299.449 34.3572C314.156 36.807 321.149 38.7139 337.153 41.0374Z" fill="#FD0079"/>
<path d="M452.981 161.464C467.47 130.258 490.638 91.3463 488.475 54.9038C504.218 54.0124 512.591 55.1254 526.141 57.8773C535.126 91.2973 510.05 132.538 497.182 160.8C479.315 160.184 468.437 159.958 452.981 161.464ZM486.826 47.991C483.721 39.7197 481.095 35.6887 465.656 21.9749C481.495 21.9316 484.644 22.9107 495.284 26.8036C514.183 40.3947 518.049 43.8761 523.038 51.5351C509.893 48.5293 502.593 47.3117 486.826 47.991Z" fill="#FD0079"/>
<path d="M56.5029 308.306C72.1713 250.319 96.6454 199.513 126.303 147.398C144.999 137.49 154.03 132.964 172.787 126.461C143.579 179.425 119.105 230.231 104.536 289.062C85.1355 295.994 75.4543 300.525 56.5029 308.306Z" fill="#FBFF00"/>
<path d="M199.515 156.659C190.379 156.93 185.82 157.598 176.71 159.362C186.198 142.241 190.623 134.108 198.634 119.556C218.373 115.806 229.033 115.526 246.906 116.906C240.373 128.89 236.788 135.311 229.197 149.008C220.976 163.989 207.349 180.923 200.74 188.642C190.282 188.068 184.185 187.893 172.673 189.245C180.569 180.451 192.933 165.871 199.515 156.659Z" fill="#FBFF00"/>
<path d="M286.46 168.439C288.208 169.067 289.084 169.487 290.615 170.116C322.918 179.918 322.217 213.559 309.398 237.27C302.06 251.792 298.933 259.05 293.552 273.773C291.892 278.041 291.721 280.597 294.569 282.069C296.104 282.911 296.979 283.332 298.51 283.961C292.935 299.962 290.688 307.853 287.066 323.842C277.855 318.578 273.681 315.837 265.334 310.354C259.184 306.348 257.475 295.715 257.772 288.049C255.239 292.11 247.585 301.099 232.692 293.742C231.816 293.321 231.378 293.111 230.72 292.69C213.862 284.706 202.476 267.108 205.127 245.377C207.964 221.942 225.935 207.14 250.177 215.29C259.129 218.214 263.287 220.103 272.034 223.667C276.402 225.13 278.759 223.412 280.405 218.293C282.472 212.532 281.947 207.426 272.972 203.224C272.755 203.226 272.751 203.013 272.534 203.014C262.241 197.97 257.823 205.874 256.365 209.29C244.111 203.832 237.767 201.104 223.167 198.003C231.827 172.402 259.987 156.897 286.46 168.439ZM266.04 252.658C266.866 250.311 267.278 249.031 268.321 246.683C265.926 246.272 260.697 245.24 254.814 244C244.136 241.725 240.062 244.519 238.889 251.764C237.712 258.797 240.415 264.315 246.116 267.472C255.979 272.732 262.525 262.473 266.04 252.658Z" fill="#FBFF00"/>
<path d="M361.887 197.229C379.171 200.54 392.045 201.101 408.625 201.638C401.4 212.159 396.928 218.173 391.199 226.974C406.46 214.692 422.539 199.413 443.46 198.853C444.114 198.849 444.332 198.848 444.99 199.057C462.243 200.659 464.33 219.886 459.018 239.802C478.378 225.143 500.328 208.971 526.313 211.159C526.971 211.369 527.407 211.366 528.061 211.362C562.636 218.413 536.39 274.803 528.403 291.528C517.923 315.11 510.296 339.743 505.079 365.002C487.86 365.324 478.482 365.169 454.238 362.756C461.888 339.406 469.993 317.122 479.398 294.401C486.516 277.895 487.786 263.564 472.702 261.307C458.711 259.258 446.514 272.161 438.516 288.245C428.243 311.184 419.484 333.473 411.406 357.254C392.164 354.168 382.537 352.304 367.219 349.194C374.865 325.63 383.414 303.77 393.259 281.261C400.817 264.966 404.049 250.623 392.694 249.625C382.211 248.622 370.01 261.312 362 276.755C351.708 298.625 343.148 319.844 335.268 342.554C317.537 338.604 311.598 335.648 298.835 329.101C313.224 280.268 333.427 239.523 361.887 197.229Z" fill="#FBFF00"/>
<path d="M113.197 437.684C132.285 429.165 134.508 414.125 132.849 395.595C130.922 365.061 131.175 334.529 132.29 303.913C152.001 295.119 161.988 290.924 182.3 287.442C181.592 317.804 181.962 348.06 184.511 378.319C189.004 418.057 180.917 444.84 139.818 461.088C136.896 462.231 135.651 462.782 132.753 464.139C100.372 478.463 48.4384 474.067 41.5012 431.99C57.5501 431.286 66.6036 428.471 83.4174 422.967C85.5284 432 92.6719 446.987 113.197 437.684Z" fill="#5BFF62"/>
<path d="M256.214 331.382C257.792 331.872 258.701 332.213 260.304 332.915C286.756 341.711 301.688 369.87 303.729 395.637C305.168 408.373 306.079 414.507 308.379 425.227C308.954 428.39 309.815 430.238 311.944 431.747C313.14 432.704 313.619 433.086 314.815 434.043C317.377 445.166 318.144 450.027 323.169 457.907C316.854 452.084 313.696 449.173 306.376 444.092C300.947 440.329 294.416 434.528 291.306 430.11C291.33 432.253 291.834 434.779 274.781 430.217C273.872 429.877 273.442 429.919 272.533 429.578C254.214 425.354 227.645 423.222 216.878 406.889C207.929 393.168 219.639 371.641 250.825 376.113C260.558 377.526 264.839 378.825 272.995 381.679C277.037 382.787 277.754 381.43 276.556 376.611C275.311 371.367 273.014 366.441 263.71 363.055C263.495 363.076 263.495 363.076 263.255 362.885C252.589 358.989 252.591 366.714 252.951 369.898C239.271 366.295 231.69 364.673 211.794 365.753C207.169 340.237 231.245 322.227 256.214 331.382ZM282.043 405.905C281.612 404.015 281.3 403.187 281.061 401.065C279.076 400.829 274.819 399.741 269.294 398.992C259.346 397.601 256.62 400.441 259.157 405.559C261.67 410.465 266.836 413.824 273.174 415.996C283.817 419.68 283.528 413.271 282.043 405.905Z" fill="#5BFF62"/>
<path d="M349.621 379.979C349.218 387.95 349.005 391.83 348.768 399.357C352.251 393.657 363.203 381.013 382.73 384.683C383.398 384.832 383.613 384.811 384.067 384.981C412.928 392.457 424.804 428.388 420.397 454.758C417.255 480.791 414.92 492.81 412.706 511.677C395.352 508.01 388.524 505.246 376.325 499.146C375.508 484.219 377.032 474.637 378.72 453.034C379.717 438.787 374.295 427.31 363.003 423.48C352.38 419.8 348.993 428.277 349.117 440.913C349.673 461.226 349.175 470.279 353.07 483.62C343.734 475.954 339.795 471.837 331.748 464.046C319.158 433.33 319.528 398.135 318.466 365.651C329.83 372.047 335.608 375.128 349.621 379.979Z" fill="#5BFF62"/>
<path d="M537.99 496.525C534.412 497.734 532.516 498.35 528.723 499.581C492.229 509.164 438.923 503.372 437.37 456.79C435.648 406.78 476.987 384.018 522.558 377.427C526.207 376.857 527.912 376.475 531.105 375.734C566.853 363.423 586.714 376.779 584.686 412.942C584.638 414.454 584.519 415.327 584.471 416.839C566.329 445.74 534.612 451.198 503.184 457.273C505.902 469.715 517.093 475.947 534.403 470.6C552.145 465.212 553.127 456.502 553.966 454.266C570.699 445.746 576.892 440.62 583.826 426.593C581.675 455.875 567.664 486.528 537.99 496.525ZM503.968 433.292C529.851 430.341 539.142 427.498 554.507 420.403C553.303 411.69 550.059 404.253 531.548 408.64C516.447 412.264 507.494 421.966 503.968 433.292Z" fill="#5BFF62"/>
<path fill-rule="evenodd" clip-rule="evenodd" d="M216.5 83L215.442 67.436L215.432 67.2916C215.025 61.3063 214.792 58.0458 213.143 55.9215C212.989 55.7235 212.824 55.5355 212.644 55.356C212.465 55.1765 212.276 55.0105 212.079 54.8569C209.954 53.2081 206.694 52.9745 200.708 52.5676L200.564 52.5578L185 51.5L200.564 50.4422L200.708 50.4324C206.694 50.0255 209.954 49.7919 212.078 48.1431C212.276 47.9895 212.465 47.8235 212.644 47.644C212.824 47.4645 212.989 47.2764 213.143 47.0785C214.792 44.9542 215.025 41.6937 215.432 35.7084L215.442 35.564L216.5 20L217.558 35.564L217.568 35.7084C217.975 41.6937 218.208 44.9542 219.857 47.0785C220.011 47.2765 220.176 47.4645 220.356 47.644C220.535 47.8235 220.724 47.9895 220.921 48.1431C223.046 49.7919 226.306 50.0255 232.292 50.4324L232.436 50.4422L248 51.5L232.436 52.5578L232.292 52.5676C226.306 52.9745 223.046 53.2081 220.921 54.8569C220.724 55.0105 220.535 55.1765 220.356 55.356C220.176 55.5355 220.011 55.7235 219.857 55.9215C218.208 58.0458 217.975 61.3063 217.568 67.2916L217.558 67.436L216.5 83Z" fill="#FBFF00"/>
<path fill-rule="evenodd" clip-rule="evenodd" d="M173 40L172.674 35.2042L172.671 35.1597C172.259 29.0951 172.032 25.8088 170.362 23.6731C170.212 23.4812 170.05 23.2986 169.876 23.1241C169.701 22.9496 169.519 22.7879 169.327 22.6379C167.191 20.9682 163.905 20.7412 157.84 20.329L157.796 20.3259L153 20L157.796 19.6741L157.84 19.671C163.905 19.2588 167.191 19.0318 169.327 17.3621C169.519 17.2121 169.701 17.0504 169.876 16.8759C170.05 16.7014 170.212 16.5188 170.362 16.3269C172.032 14.1912 172.259 10.9049 172.671 4.84033L172.674 4.79582L173 0L173.326 4.79581L173.329 4.84033C173.741 10.9049 173.968 14.1912 175.638 16.3269C175.788 16.5188 175.95 16.7014 176.124 16.8759C176.299 17.0504 176.481 17.2121 176.673 17.3621C178.809 19.0318 182.095 19.2588 188.16 19.671L188.204 19.6741L193 20L188.204 20.3259L188.16 20.329C182.095 20.7412 178.809 20.9682 176.673 22.6379C176.481 22.7879 176.299 22.9496 176.124 23.1241C175.95 23.2986 175.788 23.4812 175.638 23.6731C173.968 25.8088 173.741 29.0951 173.329 35.1597L173.326 35.2042L173 40Z" fill="#FD0079"/>
</svg>
