<svg width="596" height="549" viewBox="0 0 596 549" fill="none" xmlns="http://www.w3.org/2000/svg">
<path d="M231.928 43.928C232.571 43.2851 233.085 42.5908 233.5 41.8552C233.915 42.5908 234.429 43.2851 235.072 43.928C235.715 44.5708 236.409 45.0848 237.145 45.5C236.409 45.9152 235.715 46.4292 235.072 47.072C234.429 47.7149 233.915 48.4092 233.5 49.1448C233.085 48.4092 232.571 47.7149 231.928 47.072C231.285 46.4292 230.591 45.9152 229.855 45.5C230.591 45.0848 231.285 44.5708 231.928 43.928Z" stroke="#FBFF00" stroke-width="7"/>
<path d="M174.916 21.9161C175.33 21.502 175.689 21.0646 176 20.6062C176.311 21.0646 176.67 21.502 177.084 21.9161C177.498 22.3302 177.935 22.6886 178.394 23C177.935 23.3114 177.498 23.6698 177.084 24.0839C176.67 24.498 176.311 24.9354 176 25.3938C175.689 24.9354 175.33 24.498 174.916 24.0839C174.502 23.6698 174.065 23.3114 173.606 23C174.065 22.6886 174.502 22.3302 174.916 21.9161Z" stroke="#FD0079" stroke-width="6"/>
<path d="M337.154 41.0375C352.035 58.5643 348.336 60.6494 345.819 75.1258C367.976 79.6537 389.001 79.9791 411.516 79.9439C414.753 64.1036 419.342 62.1476 402.128 41.3977C424.064 38.1843 436.87 33.4879 449.123 29.7077C482.255 75.2149 448.587 121.618 426.093 166.286C405.573 168.499 392.285 168.93 373.494 167.093C382.929 148.062 392.171 129.265 400.452 109.699C379.716 109.993 357.32 107.213 336.917 102.73C330.389 120.4 326.069 130.524 314.69 155.567C299.166 151.687 291.908 149.374 275.88 146.838C287.065 120.089 322.146 62.983 299.449 34.3572C314.156 36.8071 321.149 38.7139 337.154 41.0375Z" fill="#FD0079"/>
<path d="M452.981 161.464C467.47 130.258 490.638 91.3464 488.475 54.9038C504.218 54.0124 512.591 55.1255 526.142 57.8774C535.126 91.2973 510.05 132.538 497.182 160.8C479.315 160.184 468.437 159.958 452.981 161.464ZM486.826 47.9911C483.721 39.7198 481.095 35.6888 465.656 21.9749C481.495 21.9316 484.644 22.9108 495.285 26.8037C514.183 40.3947 518.049 43.8762 523.038 51.5351C509.893 48.5294 502.593 47.3117 486.826 47.9911Z" fill="#FD0079"/>
<path d="M56.5032 308.306C72.1716 250.319 96.6457 199.513 126.303 147.398C144.999 137.49 154.03 132.964 172.787 126.461C143.579 179.425 119.105 230.231 104.536 289.062C85.1358 295.994 75.4546 300.525 56.5032 308.306Z" fill="#FBFF00"/>
<path d="M199.515 156.659C190.379 156.93 185.82 157.598 176.71 159.362C186.198 142.241 190.624 134.109 198.634 119.556C218.374 115.806 229.034 115.526 246.906 116.906C240.373 128.891 236.788 135.311 229.197 149.008C220.977 163.989 207.349 180.923 200.74 188.642C190.283 188.068 184.185 187.893 172.674 189.245C180.57 180.451 192.933 165.871 199.515 156.659Z" fill="#FBFF00"/>
<path d="M286.461 168.439C288.209 169.067 289.084 169.487 290.615 170.116C322.918 179.919 322.217 213.559 309.399 237.27C302.06 251.792 298.934 259.05 293.553 273.773C291.892 278.041 291.721 280.597 294.569 282.069C296.104 282.911 296.98 283.332 298.51 283.961C292.935 299.962 290.688 307.853 287.066 323.842C277.855 318.578 273.681 315.837 265.334 310.354C259.185 306.348 257.475 295.715 257.772 288.049C255.24 292.11 247.585 301.099 232.692 293.742C231.817 293.321 231.379 293.111 230.72 292.69C213.862 284.706 202.476 267.108 205.127 245.377C207.965 221.942 225.935 207.14 250.177 215.29C259.129 218.214 263.288 220.103 272.035 223.667C276.402 225.13 278.76 223.412 280.405 218.293C282.473 212.532 281.947 207.426 272.972 203.225C272.755 203.226 272.751 203.013 272.534 203.014C262.241 197.97 257.824 205.874 256.365 209.29C244.111 203.832 237.767 201.104 223.167 198.003C231.827 172.402 259.988 156.897 286.461 168.439ZM266.04 252.658C266.867 250.311 267.278 249.031 268.321 246.683C265.926 246.272 260.698 245.24 254.814 244C244.137 241.725 240.062 244.519 238.889 251.764C237.712 258.797 240.416 264.315 246.116 267.472C255.979 272.732 262.525 262.473 266.04 252.658Z" fill="#FBFF00"/>
<path d="M361.888 197.229C379.171 200.541 392.045 201.101 408.625 201.638C401.4 212.159 396.929 218.173 391.199 226.974C406.46 214.692 422.539 199.413 443.46 198.853C444.114 198.849 444.332 198.848 444.99 199.058C462.243 200.659 464.331 219.886 459.018 239.802C478.378 225.143 500.329 208.971 526.313 211.159C526.971 211.369 527.407 211.366 528.061 211.362C562.636 218.413 536.39 274.803 528.404 291.528C517.923 315.11 510.296 339.743 505.079 365.002C487.86 365.324 478.482 365.169 454.238 362.756C461.888 339.406 469.993 317.122 479.398 294.402C486.516 277.896 487.786 263.564 472.702 261.307C458.711 259.258 446.514 272.161 438.516 288.245C428.243 311.185 419.484 333.473 411.406 357.254C392.164 354.168 382.537 352.304 367.22 349.194C374.866 325.63 383.414 303.77 393.259 281.261C400.817 264.966 404.049 250.623 392.694 249.625C382.211 248.622 370.01 261.312 362.001 276.755C351.708 298.625 343.148 319.844 335.268 342.554C317.537 338.604 311.598 335.648 298.835 329.101C313.225 280.268 333.427 239.523 361.888 197.229Z" fill="#FBFF00"/>
<path d="M113.198 437.684C132.286 429.165 134.508 414.125 132.849 395.596C130.922 365.061 131.175 334.529 132.29 303.913C152.001 295.119 161.989 290.924 182.3 287.442C181.592 317.804 181.962 348.06 184.512 378.319C189.005 418.057 180.918 444.84 139.818 461.088C136.896 462.232 135.651 462.782 132.753 464.139C100.372 478.464 48.4388 474.068 41.5016 431.99C57.5504 431.286 66.604 428.471 83.4177 422.967C85.5288 432 92.6723 446.987 113.198 437.684Z" fill="#5BFF62"/>
<path d="M256.214 331.382C257.792 331.872 258.701 332.213 260.304 332.915C286.756 341.711 301.688 369.871 303.729 395.637C305.169 408.373 306.079 414.507 308.379 425.227C308.954 428.39 309.815 430.238 311.944 431.747C313.14 432.704 313.619 433.086 314.815 434.043C317.377 445.166 318.144 450.027 323.169 457.907C316.854 452.084 313.696 449.173 306.377 444.092C300.947 440.329 294.416 434.528 291.306 430.11C291.331 432.253 291.834 434.779 274.781 430.217C273.873 429.877 273.442 429.919 272.533 429.578C254.214 425.354 227.645 423.222 216.878 406.889C207.929 393.168 219.64 371.641 250.825 376.113C260.558 377.526 264.839 378.825 272.995 381.679C277.037 382.787 277.754 381.43 276.556 376.611C275.311 371.367 273.014 366.441 263.71 363.055C263.495 363.076 263.495 363.076 263.256 362.885C252.589 358.989 252.591 366.714 252.951 369.898C239.271 366.295 231.69 364.673 211.794 365.753C207.17 340.238 231.245 322.227 256.214 331.382ZM282.043 405.905C281.612 404.015 281.301 403.187 281.061 401.065C279.076 400.829 274.819 399.742 269.294 398.992C259.346 397.601 256.62 400.442 259.157 405.559C261.67 410.465 266.836 413.824 273.174 415.996C283.817 419.68 283.528 413.271 282.043 405.905Z" fill="#5BFF62"/>
<path d="M349.621 379.979C349.218 387.95 349.005 391.83 348.769 399.357C352.252 393.657 363.204 381.013 382.73 384.683C383.399 384.832 383.614 384.811 384.067 384.981C412.928 392.457 424.804 428.388 420.397 454.758C417.255 480.791 414.92 492.81 412.707 511.677C395.352 508.01 388.525 505.246 376.325 499.146C375.508 484.219 377.033 474.637 378.72 453.034C379.718 438.787 374.295 427.31 363.004 423.481C352.38 419.8 348.994 428.277 349.117 440.914C349.673 461.226 349.175 470.279 353.071 483.62C343.735 475.955 339.795 471.837 331.748 464.046C319.158 433.33 319.528 398.135 318.466 365.651C329.831 372.047 335.608 375.128 349.621 379.979Z" fill="#5BFF62"/>
<path d="M537.99 496.525C534.413 497.734 532.516 498.35 528.723 499.581C492.23 509.164 438.924 503.372 437.371 456.791C435.649 406.78 476.988 384.019 522.558 377.428C526.207 376.857 527.912 376.475 531.105 375.734C566.853 363.423 586.715 376.779 584.686 412.942C584.639 414.454 584.519 415.327 584.471 416.839C566.329 445.741 534.613 451.198 503.185 457.273C505.902 469.715 517.093 475.947 534.403 470.6C552.146 465.212 553.127 456.502 553.967 454.266C570.699 445.746 576.892 440.62 583.827 426.593C581.676 455.875 567.664 486.528 537.99 496.525ZM503.969 433.292C529.851 430.341 539.143 427.498 554.507 420.403C553.304 411.69 550.06 404.253 531.549 408.64C516.447 412.264 507.494 421.966 503.969 433.292Z" fill="#5BFF62"/>
</svg>
